<?xml version="1.0" encoding="UTF-8"?><svg id="Layer_1" xmlns="http://www.w3.org/2000/svg" viewBox="0 0 709.36 148.61"><defs><style>.cls-1{fill:#fff;}.cls-2{fill:#19be7b;}</style></defs><path class="cls-2" d="m392.57,82.78h-3.07c-.87,0-1.3-.43-1.3-1.3V25.07c0-.95.43-1.42,1.3-1.42h3.07c.95,0,1.42.47,1.42,1.42v7.1c3.07-6.46,8.4-9.7,15.97-9.7,9.46,0,15.85,4.1,19.16,12.3,3.47-8.2,9.62-12.3,18.45-12.3,7.81,0,13.36,2.19,16.67,6.56,3.31,4.37,4.97,11.02,4.97,19.93v32.52c0,.87-.47,1.3-1.42,1.3h-3.07c-.87,0-1.3-.43-1.3-1.3v-32.52c0-6.62-1.16-11.77-3.49-15.43-2.33-3.67-6.44-5.5-12.36-5.5s-9.76,1.73-12.24,5.2c-2.48,3.47-3.72,8.71-3.72,15.73v32.52c0,.87-.47,1.3-1.42,1.3h-3.07c-.87,0-1.3-.43-1.3-1.3v-32.52c0-7.02-1.22-12.26-3.67-15.73-2.44-3.47-6.5-5.2-12.18-5.2-10.64,0-15.97,6.98-15.97,20.93v32.52c0,.87-.47,1.3-1.42,1.3Z"/><path class="cls-2" d="m523.73,81.48c0,.87-.47,1.3-1.42,1.3h-3.08c-.87,0-1.3-.43-1.3-1.3v-7.1c-1.34,3-3.61,5.34-6.8,7.04s-6.72,2.54-10.58,2.54h-2.72c-5.83,0-10.47-1.52-13.9-4.55-3.43-3.03-5.15-7.19-5.15-12.48,0-11.27,6.7-16.91,20.1-16.91h19.04v-4.85c0-2.05-.04-3.65-.12-4.79-.08-1.14-.39-2.62-.95-4.43-.55-1.81-1.32-3.21-2.3-4.2-.99-.99-2.5-1.85-4.55-2.6-2.05-.75-4.53-1.12-7.45-1.12-5.05,0-8.61.83-10.7,2.48-2.09,1.65-3.45,4.18-4.08,7.57-.16.87-.63,1.3-1.42,1.3h-3.07c-.87,0-1.3-.43-1.3-1.3v-.24c1.26-10.25,8.12-15.37,20.58-15.37,3.94,0,7.29.53,10.05,1.6,2.76,1.06,4.85,2.29,6.27,3.67,1.42,1.38,2.5,3.23,3.25,5.56.75,2.33,1.2,4.3,1.36,5.91.16,1.62.24,3.65.24,6.09v36.19Zm-24.71-25.9c-5.52,0-9.3.93-11.35,2.78-2.05,1.85-3.07,4.71-3.07,8.57,0,3.55,1.24,6.35,3.72,8.4,2.48,2.05,5.66,3.07,9.52,3.07h2.72c6.15,0,10.58-1.87,13.31-5.62,2.72-3.74,4.08-7.94,4.08-12.59v-4.61h-18.92Z"/><path class="cls-2" d="m540.7,82.78h-3.07c-.87,0-1.3-.43-1.3-1.3V1.42c0-.94.43-1.42,1.3-1.42h3.07c.95,0,1.42.47,1.42,1.42v60.43l30.51-36.42c.87-1.18,1.89-1.77,3.07-1.77h3.79c.55,0,.83.28.83.83,0,.32-.2.71-.59,1.18l-21.05,25.07,23.53,29.8c.47.63.71,1.1.71,1.42,0,.55-.28.83-.83.83h-4.61c-.63,0-1.26-.4-1.89-1.18l-20.93-26.61-12.53,14.78v11.71c0,.87-.47,1.3-1.42,1.3Z"/><path class="cls-2" d="m592.94,58.89c0,6.07,1.64,10.84,4.91,14.31,3.27,3.47,7.51,5.2,12.71,5.2,8.36,0,13.92-4.14,16.67-12.42.24-.71.63-1.06,1.18-1.06h3.67c.55,0,.83.28.83.83,0,.16-.12.67-.35,1.54-1.58,5.91-4.49,10.17-8.75,12.77-4.26,2.6-8.67,3.9-13.24,3.9-6.86,0-12.48-2.27-16.85-6.8-4.37-4.53-6.56-10.82-6.56-18.86v-10.05c0-8.04,2.15-14.35,6.44-18.92s9.88-6.86,16.73-6.86,12.44,2.29,16.73,6.86,6.44,10.88,6.44,18.92v6.15c0,.87-.47,1.3-1.42,1.3h-39.14v3.19Zm34.77-8.75v-2.01c0-6.31-1.6-11.23-4.79-14.78-3.19-3.55-7.39-5.32-12.59-5.32s-9.3,1.77-12.53,5.32c-3.23,3.55-4.85,8.48-4.85,14.78v2.01h34.77Z"/><path class="cls-2" d="m647.62,82.78c-.87,0-1.3-.43-1.3-1.3V25.07c0-.95.43-1.42,1.3-1.42h2.84c.95,0,1.42.47,1.42,1.42v9.46c3.08-7.25,8.87-10.88,17.38-10.88h1.89c.95,0,1.42.47,1.42,1.42v2.84c0,.87-.47,1.3-1.42,1.3h-1.89c-3.15,0-5.91.71-8.28,2.13-2.37,1.42-4.16,3.29-5.38,5.62-1.22,2.33-2.11,4.63-2.66,6.92-.55,2.29-.83,4.61-.83,6.98v30.63c0,.87-.47,1.3-1.42,1.3h-3.08Z"/><path class="cls-2" d="m384.49,103.85c0,.86-.47,1.29-1.4,1.29-4.44,0-8.09-.54-10.93-1.64-2.85-1.09-4.97-2.84-6.37-5.26-1.4-2.42-2.34-5.07-2.81-7.95-.47-2.88-.7-6.63-.7-11.23v-11.7c0-2.96-1.07-5.65-3.22-8.07-2.15-2.42-4.58-3.62-7.31-3.62-.86,0-1.29-.43-1.29-1.29v-3.16c0-.93.43-1.4,1.29-1.4,2.73,0,5.16-1.21,7.31-3.63,2.14-2.42,3.22-5.15,3.22-8.19v-11.69c0-4.6.23-8.34.7-11.23.47-2.88,1.4-5.55,2.81-8.01,1.4-2.45,3.53-4.23,6.37-5.32s6.49-1.64,10.93-1.64c.94,0,1.4.47,1.4,1.4v2.69c0,.86-.47,1.29-1.4,1.29-2.73,0-5.03.31-6.9.93-1.87.62-3.35,1.42-4.44,2.4s-1.91,2.42-2.46,4.33c-.54,1.91-.9,3.82-1.05,5.73-.16,1.91-.23,4.42-.23,7.54v11.69c0,7.33-3.16,12.12-9.47,14.38,6.31,2.42,9.47,7.37,9.47,14.85v11.7c0,7.8.9,13.19,2.69,16.2,1.79,3,5.93,4.5,12.4,4.5.94,0,1.4.47,1.4,1.4v2.69Z"/><path class="cls-2" d="m675.33,101.16c0-.94.47-1.4,1.4-1.4,6.47,0,10.6-1.5,12.4-4.5,1.79-3,2.69-8.4,2.69-16.2v-11.7c0-7.48,3.16-12.43,9.47-14.85-6.31-2.26-9.47-7.06-9.47-14.38v-11.69c0-3.12-.08-5.63-.23-7.54-.16-1.91-.51-3.82-1.05-5.73-.55-1.91-1.37-3.35-2.46-4.33s-2.57-1.77-4.44-2.4c-1.87-.62-4.17-.93-6.9-.93-.93,0-1.4-.43-1.4-1.29V1.52c0-.94.47-1.4,1.4-1.4,4.44,0,8.09.55,10.94,1.64,2.85,1.09,4.97,2.87,6.37,5.32,1.4,2.46,2.34,5.13,2.81,8.01.47,2.89.7,6.63.7,11.23v11.69c0,3.04,1.07,5.77,3.22,8.19,2.14,2.42,4.58,3.63,7.31,3.63.86,0,1.29.47,1.29,1.4v3.16c0,.86-.43,1.29-1.29,1.29-2.73,0-5.17,1.21-7.31,3.62-2.14,2.42-3.22,5.11-3.22,8.07v11.7c0,4.6-.23,8.34-.7,11.23-.47,2.89-1.4,5.54-2.81,7.95-1.4,2.42-3.53,4.17-6.37,5.26-2.85,1.09-6.49,1.64-10.94,1.64-.93,0-1.4-.43-1.4-1.29v-2.69Z"/><path class="cls-1" d="m12.77,59.13c0,4.18,1.22,7.57,3.67,10.17,2.44,2.6,5.52,3.9,9.22,3.9,5.28,0,9.15-2.4,11.59-7.21.87-1.1,1.77-1.66,2.72-1.66h7.69c1.26,0,1.89.67,1.89,2.01,0,.24-.2.87-.59,1.89-1.97,5.36-5.13,9.32-9.46,11.88-4.34,2.56-8.95,3.84-13.84,3.84-7.33,0-13.44-2.45-18.33-7.33-4.89-4.89-7.33-11.39-7.33-19.51v-7.69c0-8.12,2.45-14.64,7.33-19.57,4.89-4.93,10.96-7.39,18.21-7.39s13.05,2.5,17.86,7.51c4.81,5.01,7.21,11.41,7.21,19.22v5.44c0,.79-.26,1.46-.77,2.01-.51.55-1.16.83-1.95.83H12.77v1.66Zm25.54-10.64v-1.42c0-4.26-1.18-7.61-3.55-10.05-2.37-2.45-5.44-3.67-9.22-3.67s-6.76,1.24-9.17,3.73c-2.4,2.48-3.61,5.85-3.61,10.11v1.3h25.54Z"/><path class="cls-1" d="m62.49,82.78c-.79,0-1.44-.26-1.95-.77s-.77-1.16-.77-1.95V2.84c0-.79.26-1.46.77-2.01.51-.55,1.16-.83,1.95-.83h7.21c.79,0,1.46.28,2.01.83.55.55.83,1.22.83,2.01v77.22c0,.79-.28,1.44-.83,1.95-.55.51-1.22.77-2.01.77h-7.21Z"/><path class="cls-1" d="m94.47,59.13c0,4.18,1.22,7.57,3.67,10.17,2.44,2.6,5.52,3.9,9.22,3.9,5.28,0,9.15-2.4,11.59-7.21.87-1.1,1.77-1.66,2.72-1.66h7.69c1.26,0,1.89.67,1.89,2.01,0,.24-.2.87-.59,1.89-1.97,5.36-5.13,9.32-9.46,11.88-4.34,2.56-8.95,3.84-13.84,3.84-7.33,0-13.44-2.45-18.33-7.33-4.89-4.89-7.33-11.39-7.33-19.51v-7.69c0-8.12,2.45-14.64,7.33-19.57,4.89-4.93,10.96-7.39,18.21-7.39s13.05,2.5,17.86,7.51c4.81,5.01,7.21,11.41,7.21,19.22v5.44c0,.79-.26,1.46-.77,2.01-.51.55-1.16.83-1.95.83h-35.12v1.66Zm25.54-10.64v-1.42c0-4.26-1.18-7.61-3.55-10.05-2.37-2.45-5.44-3.67-9.22-3.67s-6.76,1.24-9.17,3.73c-2.4,2.48-3.61,5.85-3.61,10.11v1.3h25.54Z"/><path class="cls-1" d="m152.66,58.54c0,4.57,1.18,8.16,3.55,10.76,2.37,2.6,5.44,3.9,9.22,3.9,6.62,0,10.68-3.47,12.18-10.41.24-1.1.87-1.65,1.89-1.65h8.16c1.34,0,2.01.63,2.01,1.89,0,.47-.08,1.11-.24,1.89-.87,4.81-3.39,9.19-7.57,13.13-4.18,3.94-9.66,5.91-16.44,5.91-7.17,0-13.17-2.45-17.98-7.33-4.81-4.89-7.21-11.39-7.21-19.51v-7.69c0-8.12,2.4-14.64,7.21-19.57,4.81-4.93,10.8-7.39,17.98-7.39,6.23,0,11.47,1.85,15.73,5.56,4.26,3.71,7.02,8.4,8.28,14.07.16.39.24.91.24,1.54,0,1.26-.59,1.89-1.77,1.89h-8.16c-1.18,0-1.85-.59-2.01-1.77-1.73-6.94-5.83-10.41-12.3-10.41-3.79,0-6.86,1.3-9.22,3.9-2.36,2.6-3.55,6.19-3.55,10.76v10.53Z"/><path class="cls-1" d="m222.35,82.78c-6.78,0-11.53-1.54-14.25-4.61-2.72-3.07-4.08-7.84-4.08-14.31v-28.97h-8.04c-.79,0-1.44-.26-1.95-.77s-.77-1.16-.77-1.95v-5.68c0-.79.26-1.46.77-2.01.51-.55,1.16-.83,1.95-.83,3,0,5.1-.49,6.33-1.48s1.83-2.94,1.83-5.85v-5.2c0-.79.26-1.46.77-2.01.51-.55,1.16-.83,1.95-.83h6.98c.79,0,1.44.28,1.95.83.51.55.77,1.22.77,2.01v12.54h11.94c.79,0,1.46.28,2.01.83.55.55.83,1.22.83,2.01v5.68c0,.79-.28,1.44-.83,1.95s-1.22.77-2.01.77h-11.94v27.2c0,3.63.47,6.07,1.42,7.33.95,1.26,3.11,1.89,6.5,1.89h4.02c.79,0,1.46.26,2.01.77s.83,1.16.83,1.95v6.03c0,.79-.28,1.44-.83,1.95s-1.22.77-2.01.77h-6.15Z"/><path class="cls-1" d="m278.97,49.43c0-8.12,2.42-14.64,7.27-19.57,4.85-4.93,10.9-7.39,18.15-7.39s13.42,2.46,18.27,7.39c4.85,4.93,7.27,11.45,7.27,19.57v7.69c0,8.12-2.42,14.63-7.27,19.51-4.85,4.89-10.94,7.33-18.27,7.33s-13.3-2.45-18.15-7.33c-4.85-4.89-7.27-11.39-7.27-19.51v-7.69Zm12.77,9.11c0,4.57,1.18,8.16,3.55,10.76,2.37,2.6,5.4,3.9,9.11,3.9s6.86-1.28,9.22-3.84c2.36-2.56,3.55-6.17,3.55-10.82v-10.53c0-4.65-1.18-8.26-3.55-10.82-2.37-2.56-5.44-3.84-9.22-3.84s-6.74,1.3-9.11,3.9c-2.37,2.6-3.55,6.19-3.55,10.76v10.53Z"/><path class="cls-1" d="m193.55,95.15c-6.83,0-12.58,4.62-14.34,10.9h-27.71c-1.05,0-2.07.42-2.82,1.16l-22.71,22.5h-49.27c-1.75-6.28-7.51-10.9-14.34-10.9-8.21,0-14.9,6.68-14.9,14.9s6.68,14.9,14.9,14.9c6.83,0,12.58-4.62,14.34-10.9h50.92c1.05,0,2.07-.42,2.82-1.16l22.71-22.5h26.07c1.75,6.28,7.51,10.9,14.34,10.9,8.22,0,14.9-6.68,14.9-14.9s-6.68-14.9-14.9-14.9Zm-131.19,45.46c-3.8,0-6.9-3.09-6.9-6.9s3.09-6.9,6.9-6.9,6.9,3.09,6.9,6.9-3.09,6.9-6.9,6.9Zm131.19-23.66c-3.8,0-6.9-3.09-6.9-6.9s3.09-6.9,6.9-6.9,6.9,3.09,6.9,6.9-3.09,6.9-6.9,6.9Z"/><path class="cls-1" d="m273.13,24.48c-.55-.55-1.22-.83-2.01-.83h-1.54c-6.86,0-12.1,2.96-15.73,8.87v-6.03c0-.79-.26-1.46-.77-2.01-.51-.55-1.16-.83-1.95-.83h-6.62c-.79,0-1.44.28-1.95.83-.51.55-.77,1.22-.77,2.01v53.57s0,0,0,0c-.02.69-.06,1.49-.17,2.24-.17,1.22-1.19,2.88-1.72,3.67l-4.25,6.18c-1.66-.64-3.45-1-5.32-1-8.21,0-14.9,6.68-14.9,14.9s6.68,14.9,14.9,14.9,14.9-6.68,14.9-14.9c0-3.44-1.18-6.6-3.15-9.13l6.48-9.42h0c.75-1.08,5.2-5.7,5.2-5.7.43-.48.68-1.05.68-1.74v-26.73c0-11.35,5.01-17.03,15.02-17.03h1.66c.79,0,1.46-.26,2.01-.77.55-.51.83-1.16.83-1.95v-7.1c0-.79-.28-1.46-.83-2.01Zm-42.79,88.46c-3.8,0-6.9-3.09-6.9-6.9s3.09-6.9,6.9-6.9,6.9,3.09,6.9,6.9-3.09,6.9-6.9,6.9Z"/></svg>